<svg width="15" height="15" viewBox="0 0 15 15" fill="none" xmlns="http://www.w3.org/2000/svg">
<g clip-path="url(#clip0_278_23)">
<path d="M0 13H15" stroke="#AEAEAE"/>
<path d="M0 11H15" stroke="#AEAEAE"/>
<path d="M0 9H15" stroke="#AEAEAE"/>
<path d="M0 7H15" stroke="#AEAEAE"/>
<path d="M0 5H15" stroke="#AEAEAE"/>
<g filter="url(#filter0_d_278_23)">
<ellipse cx="7" cy="10" rx="2" ry="1" fill="#0A81BD"/>
<path d="M8.9 10C8.9 10.2179 8.72079 10.442 8.36949 10.6177C8.02418 10.7903 7.54013 10.9 7 10.9C6.45987 10.9 5.97582 10.7903 5.63051 10.6177C5.27921 10.442 5.1 10.2179 5.1 10C5.1 9.78214 5.27921 9.55799 5.63051 9.38234C5.97582 9.20968 6.45987 9.1 7 9.1C7.54013 9.1 8.02418 9.20968 8.36949 9.38234C8.72079 9.55799 8.9 9.78214 8.9 10Z" stroke="#08E2FF" stroke-width="0.2"/>
</g>
<mask id="path-8-outside-1_278_23" maskUnits="userSpaceOnUse" x="4" y="0" width="6" height="7" fill="black">
<rect fill="white" x="4" width="6" height="7"/>
<path d="M7.81641 3.76172V2.64062C7.81641 2.48698 7.78646 2.34245 7.72656 2.20703C7.66927 2.06901 7.58984 1.94922 7.48828 1.84766C7.38672 1.74609 7.26693 1.66667 7.12891 1.60938C6.99349 1.54948 6.84896 1.51953 6.69531 1.51953C6.54167 1.51953 6.39583 1.54948 6.25781 1.60938C6.1224 1.66667 6.00391 1.74609 5.90234 1.84766C5.80078 1.94922 5.72005 2.06901 5.66016 2.20703C5.60286 2.34245 5.57422 2.48698 5.57422 2.64062V3.76172H7.81641ZM8.9375 6H7.81641V4.87891H5.57422V6H4.45703V2.64062C4.45703 2.33073 4.51562 2.04036 4.63281 1.76953C4.75 1.49609 4.90885 1.25781 5.10938 1.05469C5.3125 0.851562 5.54948 0.691406 5.82031 0.574219C6.09375 0.457031 6.38542 0.398438 6.69531 0.398438C7.00521 0.398438 7.29557 0.457031 7.56641 0.574219C7.83984 0.691406 8.07812 0.851562 8.28125 1.05469C8.48438 1.25781 8.64453 1.49609 8.76172 1.76953C8.87891 2.04036 8.9375 2.33073 8.9375 2.64062V6Z"/>
</mask>
<path d="M7.81641 3.76172V2.64062C7.81641 2.48698 7.78646 2.34245 7.72656 2.20703C7.66927 2.06901 7.58984 1.94922 7.48828 1.84766C7.38672 1.74609 7.26693 1.66667 7.12891 1.60938C6.99349 1.54948 6.84896 1.51953 6.69531 1.51953C6.54167 1.51953 6.39583 1.54948 6.25781 1.60938C6.1224 1.66667 6.00391 1.74609 5.90234 1.84766C5.80078 1.94922 5.72005 2.06901 5.66016 2.20703C5.60286 2.34245 5.57422 2.48698 5.57422 2.64062V3.76172H7.81641ZM8.9375 6H7.81641V4.87891H5.57422V6H4.45703V2.64062C4.45703 2.33073 4.51562 2.04036 4.63281 1.76953C4.75 1.49609 4.90885 1.25781 5.10938 1.05469C5.3125 0.851562 5.54948 0.691406 5.82031 0.574219C6.09375 0.457031 6.38542 0.398438 6.69531 0.398438C7.00521 0.398438 7.29557 0.457031 7.56641 0.574219C7.83984 0.691406 8.07812 0.851562 8.28125 1.05469C8.48438 1.25781 8.64453 1.49609 8.76172 1.76953C8.87891 2.04036 8.9375 2.33073 8.9375 2.64062V6Z" fill="#0A81BD"/>
<path d="M7.81641 3.76172V3.96172H8.01641V3.76172H7.81641ZM7.72656 2.20703L7.5418 2.28373L7.54366 2.28793L7.72656 2.20703ZM7.12891 1.60938L7.04798 1.79233L7.05223 1.79409L7.12891 1.60938ZM6.25781 1.60938L6.33574 1.79358L6.33743 1.79284L6.25781 1.60938ZM5.66016 2.20703L5.47668 2.12741L5.47596 2.1291L5.66016 2.20703ZM5.57422 3.76172H5.37422V3.96172H5.57422V3.76172ZM8.9375 6V6.2H9.1375V6H8.9375ZM7.81641 6H7.61641V6.2H7.81641V6ZM7.81641 4.87891H8.01641V4.67891H7.81641V4.87891ZM5.57422 4.87891V4.67891H5.37422V4.87891H5.57422ZM5.57422 6V6.2H5.77422V6H5.57422ZM4.45703 6H4.25703V6.2H4.45703V6ZM4.63281 1.76953L4.81637 1.84895L4.81664 1.84832L4.63281 1.76953ZM5.10938 1.05469L4.96795 0.913263L4.96704 0.914181L5.10938 1.05469ZM5.82031 0.574219L5.74153 0.390389L5.74089 0.390665L5.82031 0.574219ZM7.56641 0.574219L7.48698 0.757774L7.48762 0.758048L7.56641 0.574219ZM8.76172 1.76953L8.57789 1.84832L8.57816 1.84895L8.76172 1.76953ZM8.01641 3.76172V2.64062H7.61641V3.76172H8.01641ZM8.01641 2.64062C8.01641 2.46019 7.98106 2.28799 7.90947 2.12613L7.54366 2.28793C7.59185 2.3969 7.61641 2.51377 7.61641 2.64062H8.01641ZM7.91128 2.13036C7.84435 1.96912 7.75055 1.82708 7.6297 1.70623L7.34686 1.98908C7.42914 2.07136 7.49419 2.1689 7.54184 2.28371L7.91128 2.13036ZM7.6297 1.70623C7.50886 1.58539 7.36682 1.49158 7.20558 1.42466L7.05223 1.79409C7.16704 1.84175 7.26458 1.9068 7.34686 1.98908L7.6297 1.70623ZM7.20981 1.42647C7.04794 1.35487 6.87575 1.31953 6.69531 1.31953V1.71953C6.82217 1.71953 6.93903 1.74408 7.04801 1.79228L7.20981 1.42647ZM6.69531 1.31953C6.51487 1.31953 6.34188 1.35487 6.17819 1.42591L6.33743 1.79284C6.44978 1.74409 6.56846 1.71953 6.69531 1.71953V1.31953ZM6.17988 1.42518C6.02132 1.49227 5.88113 1.58602 5.76092 1.70623L6.04377 1.98908C6.12668 1.90616 6.22347 1.84107 6.33574 1.79357L6.17988 1.42518ZM5.76092 1.70623C5.64075 1.82641 5.54611 1.96744 5.47669 2.12741L5.84363 2.28665C5.894 2.17058 5.96082 2.07203 6.04377 1.98908L5.76092 1.70623ZM5.47596 2.1291C5.40777 2.29028 5.37422 2.46143 5.37422 2.64062H5.77422C5.77422 2.51252 5.79796 2.39461 5.84435 2.28496L5.47596 2.1291ZM5.37422 2.64062V3.76172H5.77422V2.64062H5.37422ZM5.57422 3.96172H7.81641V3.56172H5.57422V3.96172ZM8.9375 5.8H7.81641V6.2H8.9375V5.8ZM8.01641 6V4.87891H7.61641V6H8.01641ZM7.81641 4.67891H5.57422V5.07891H7.81641V4.67891ZM5.37422 4.87891V6H5.77422V4.87891H5.37422ZM5.57422 5.8H4.45703V6.2H5.57422V5.8ZM4.65703 6V2.64062H4.25703V6H4.65703ZM4.65703 2.64062C4.65703 2.35665 4.71057 2.09346 4.81637 1.84895L4.44926 1.69011C4.32068 1.98727 4.25703 2.30481 4.25703 2.64062H4.65703ZM4.81664 1.84832C4.9244 1.59688 5.06949 1.37977 5.25171 1.19519L4.96704 0.914181C4.74821 1.13585 4.5756 1.39531 4.44898 1.69075L4.81664 1.84832ZM5.2508 1.19611C5.43561 1.0113 5.65139 0.865228 5.89973 0.757773L5.74089 0.390665C5.44756 0.517585 5.18939 0.691825 4.96795 0.913266L5.2508 1.19611ZM5.8991 0.758048C6.1466 0.651975 6.41135 0.598438 6.69531 0.598438V0.198437C6.35948 0.198437 6.0409 0.262088 5.74153 0.39039L5.8991 0.758048ZM6.69531 0.598438C6.97928 0.598438 7.24247 0.651975 7.48698 0.757773L7.64583 0.390665C7.34867 0.262087 7.03113 0.198437 6.69531 0.198437V0.598438ZM7.48762 0.758048C7.73852 0.865576 7.95534 1.01162 8.13983 1.19611L8.42267 0.913266C8.20091 0.691508 7.94117 0.517237 7.64519 0.39039L7.48762 0.758048ZM8.13983 1.19611C8.32432 1.3806 8.47036 1.59742 8.57789 1.84832L8.94555 1.69075C8.8187 1.39477 8.64443 1.13502 8.42267 0.913266L8.13983 1.19611ZM8.57816 1.84895C8.68396 2.09346 8.7375 2.35665 8.7375 2.64062H9.1375C9.1375 2.30481 9.07385 1.98727 8.94527 1.69011L8.57816 1.84895ZM8.7375 2.64062V6H9.1375V2.64062H8.7375Z" fill="#08E2FF" mask="url(#path-8-outside-1_278_23)"/>
</g>
<defs>
<filter id="filter0_d_278_23" x="-1.9" y="2.1" width="17.8" height="15.8" filterUnits="userSpaceOnUse" color-interpolation-filters="sRGB">
<feFlood flood-opacity="0" result="BackgroundImageFix"/>
<feColorMatrix in="SourceAlpha" type="matrix" values="0 0 0 0 0 0 0 0 0 0 0 0 0 0 0 0 0 0 127 0" result="hardAlpha"/>
<feMorphology radius="1" operator="dilate" in="SourceAlpha" result="effect1_dropShadow_278_23"/>
<feOffset/>
<feGaussianBlur stdDeviation="2.95"/>
<feComposite in2="hardAlpha" operator="out"/>
<feColorMatrix type="matrix" values="0 0 0 0 0.359912 0 0 0 0 0.924848 0 0 0 0 1 0 0 0 1 0"/>
<feBlend mode="normal" in2="BackgroundImageFix" result="effect1_dropShadow_278_23"/>
<feBlend mode="normal" in="SourceGraphic" in2="effect1_dropShadow_278_23" result="shape"/>
</filter>
<clipPath id="clip0_278_23">
<rect width="15" height="15" fill="white"/>
</clipPath>
</defs>
</svg>
