<svg width="15" height="15" viewBox="0 0 15 15" fill="none" xmlns="http://www.w3.org/2000/svg">
<g clip-path="url(#clip0_278_14)">
<path d="M0 13H15" stroke="#AEAEAE"/>
<path d="M0 11H15" stroke="#AEAEAE"/>
<path d="M0 9H15" stroke="#AEAEAE"/>
<path d="M0 7H15" stroke="#AEAEAE"/>
<path d="M0 5H15" stroke="#AEAEAE"/>
<g filter="url(#filter0_d_278_14)">
<ellipse cx="7" cy="11" rx="2" ry="1" fill="#00732A"/>
<path d="M8.9 11C8.9 11.2179 8.72079 11.442 8.36949 11.6177C8.02418 11.7903 7.54013 11.9 7 11.9C6.45987 11.9 5.97582 11.7903 5.63051 11.6177C5.27921 11.442 5.1 11.2179 5.1 11C5.1 10.7821 5.27921 10.558 5.63051 10.3823C5.97582 10.2097 6.45987 10.1 7 10.1C7.54013 10.1 8.02418 10.2097 8.36949 10.3823C8.72079 10.558 8.9 10.7821 8.9 11Z" stroke="#4EFF8F" stroke-width="0.2"/>
</g>
<mask id="path-8-outside-1_278_14" maskUnits="userSpaceOnUse" x="4" y="0" width="6" height="7" fill="black">
<rect fill="white" x="4" width="6" height="7"/>
<path d="M8.97656 5.43359C8.71615 5.65495 8.42578 5.82552 8.10547 5.94531C7.78516 6.0625 7.45182 6.12109 7.10547 6.12109C6.83984 6.12109 6.58333 6.08594 6.33594 6.01562C6.09115 5.94792 5.86198 5.85156 5.64844 5.72656C5.4349 5.59896 5.23958 5.44792 5.0625 5.27344C4.88542 5.09635 4.73438 4.90104 4.60938 4.6875C4.48438 4.47135 4.38672 4.23958 4.31641 3.99219C4.2487 3.74479 4.21484 3.48828 4.21484 3.22266C4.21484 2.95703 4.2487 2.70182 4.31641 2.45703C4.38672 2.21224 4.48438 1.98307 4.60938 1.76953C4.73438 1.55339 4.88542 1.35807 5.0625 1.18359C5.23958 1.00651 5.4349 0.855469 5.64844 0.730469C5.86198 0.605469 6.09115 0.509115 6.33594 0.441406C6.58333 0.371094 6.83984 0.335938 7.10547 0.335938C7.45182 0.335938 7.78516 0.395833 8.10547 0.515625C8.42578 0.632812 8.71615 0.802083 8.97656 1.02344L8.39062 2C8.22135 1.82812 8.02604 1.69401 7.80469 1.59766C7.58333 1.4987 7.35026 1.44922 7.10547 1.44922C6.86068 1.44922 6.63021 1.49609 6.41406 1.58984C6.20052 1.68359 6.01302 1.8112 5.85156 1.97266C5.6901 2.13151 5.5625 2.31901 5.46875 2.53516C5.375 2.7487 5.32812 2.97786 5.32812 3.22266C5.32812 3.47005 5.375 3.70182 5.46875 3.91797C5.5625 4.13411 5.6901 4.32292 5.85156 4.48438C6.01302 4.64583 6.20052 4.77344 6.41406 4.86719C6.63021 4.96094 6.86068 5.00781 7.10547 5.00781C7.24609 5.00781 7.38281 4.99089 7.51562 4.95703C7.64844 4.92318 7.77474 4.8763 7.89453 4.81641V3.22266H8.97656V5.43359Z"/>
</mask>
<path d="M8.97656 5.43359C8.71615 5.65495 8.42578 5.82552 8.10547 5.94531C7.78516 6.0625 7.45182 6.12109 7.10547 6.12109C6.83984 6.12109 6.58333 6.08594 6.33594 6.01562C6.09115 5.94792 5.86198 5.85156 5.64844 5.72656C5.4349 5.59896 5.23958 5.44792 5.0625 5.27344C4.88542 5.09635 4.73438 4.90104 4.60938 4.6875C4.48438 4.47135 4.38672 4.23958 4.31641 3.99219C4.2487 3.74479 4.21484 3.48828 4.21484 3.22266C4.21484 2.95703 4.2487 2.70182 4.31641 2.45703C4.38672 2.21224 4.48438 1.98307 4.60938 1.76953C4.73438 1.55339 4.88542 1.35807 5.0625 1.18359C5.23958 1.00651 5.4349 0.855469 5.64844 0.730469C5.86198 0.605469 6.09115 0.509115 6.33594 0.441406C6.58333 0.371094 6.83984 0.335938 7.10547 0.335938C7.45182 0.335938 7.78516 0.395833 8.10547 0.515625C8.42578 0.632812 8.71615 0.802083 8.97656 1.02344L8.39062 2C8.22135 1.82812 8.02604 1.69401 7.80469 1.59766C7.58333 1.4987 7.35026 1.44922 7.10547 1.44922C6.86068 1.44922 6.63021 1.49609 6.41406 1.58984C6.20052 1.68359 6.01302 1.8112 5.85156 1.97266C5.6901 2.13151 5.5625 2.31901 5.46875 2.53516C5.375 2.7487 5.32812 2.97786 5.32812 3.22266C5.32812 3.47005 5.375 3.70182 5.46875 3.91797C5.5625 4.13411 5.6901 4.32292 5.85156 4.48438C6.01302 4.64583 6.20052 4.77344 6.41406 4.86719C6.63021 4.96094 6.86068 5.00781 7.10547 5.00781C7.24609 5.00781 7.38281 4.99089 7.51562 4.95703C7.64844 4.92318 7.77474 4.8763 7.89453 4.81641V3.22266H8.97656V5.43359Z" fill="#00732A"/>
<path d="M8.97656 5.43359L9.10609 5.58598L9.17656 5.52608V5.43359H8.97656ZM8.10547 5.94531L8.17419 6.13314L8.17553 6.13264L8.10547 5.94531ZM6.33594 6.01562L6.39062 5.82324L6.38925 5.82286L6.33594 6.01562ZM5.64844 5.72656L5.54584 5.89825L5.5474 5.89917L5.64844 5.72656ZM5.0625 5.27344L4.92107 5.41486L4.92213 5.4159L5.0625 5.27344ZM4.60938 4.6875L4.43624 4.78763L4.43677 4.78854L4.60938 4.6875ZM4.31641 3.99219L4.12349 4.04499L4.12403 4.04686L4.31641 3.99219ZM4.31641 2.45703L4.12417 2.40181L4.12364 2.40371L4.31641 2.45703ZM4.60938 1.76953L4.78198 1.87057L4.78251 1.86966L4.60938 1.76953ZM5.0625 1.18359L5.20287 1.32606L5.20392 1.32502L5.0625 1.18359ZM6.33594 0.441406L6.38926 0.634173L6.39061 0.633787L6.33594 0.441406ZM8.10547 0.515625L8.03541 0.702958L8.03675 0.70345L8.10547 0.515625ZM8.97656 1.02344L9.14806 1.12634L9.23532 0.980897L9.10609 0.87105L8.97656 1.02344ZM8.39062 2L8.24813 2.14034L8.42929 2.32429L8.56212 2.1029L8.39062 2ZM7.80469 1.59766L7.72306 1.78025L7.72486 1.78104L7.80469 1.59766ZM6.41406 1.58984L6.33448 1.40636L6.33366 1.40671L6.41406 1.58984ZM5.85156 1.97266L5.99183 2.11523L5.99298 2.11408L5.85156 1.97266ZM5.46875 2.53516L5.65188 2.61556L5.65223 2.61474L5.46875 2.53516ZM5.46875 3.91797L5.28527 3.99755L5.46875 3.91797ZM5.85156 4.48438L5.71014 4.6258L5.85156 4.48438ZM6.41406 4.86719L6.33366 5.05032L6.33448 5.05067L6.41406 4.86719ZM7.89453 4.81641L7.98397 4.99529L8.09453 4.94001V4.81641H7.89453ZM7.89453 3.22266V3.02266H7.69453V3.22266H7.89453ZM8.97656 3.22266H9.17656V3.02266H8.97656V3.22266ZM8.84703 5.28121C8.60428 5.48755 8.33404 5.6463 8.03541 5.75798L8.17553 6.13264C8.51752 6.00474 8.82801 5.82235 9.10609 5.58598L8.84703 5.28121ZM8.03675 5.75749C7.7388 5.8665 7.42875 5.92109 7.10547 5.92109V6.32109C7.4749 6.32109 7.83151 6.2585 8.17419 6.13314L8.03675 5.75749ZM7.10547 5.92109C6.85772 5.92109 6.61965 5.88834 6.39061 5.82324L6.28126 6.20801C6.54702 6.28354 6.82196 6.32109 7.10547 6.32109V5.92109ZM6.38925 5.82286C6.16073 5.75965 5.94766 5.66997 5.74947 5.55396L5.5474 5.89917C5.7763 6.03316 6.02156 6.13618 6.28262 6.20839L6.38925 5.82286ZM5.75103 5.55488C5.55119 5.43547 5.36856 5.29423 5.20287 5.13097L4.92213 5.4159C5.1106 5.6016 5.3186 5.76245 5.54585 5.89825L5.75103 5.55488ZM5.20392 5.13202C5.03877 4.96686 4.89825 4.78509 4.78198 4.58646L4.43677 4.78854C4.5705 5.01699 4.73207 5.22585 4.92108 5.41486L5.20392 5.13202ZM4.78251 4.58737C4.66602 4.38595 4.57472 4.1695 4.50879 3.93751L4.12403 4.04686C4.19872 4.30967 4.30273 4.55676 4.43624 4.78763L4.78251 4.58737ZM4.50931 3.93939C4.44648 3.7098 4.41484 3.47108 4.41484 3.22266H4.01484C4.01484 3.50548 4.05092 3.77978 4.1235 4.04498L4.50931 3.93939ZM4.41484 3.22266C4.41484 2.97422 4.44648 2.73699 4.50917 2.51035L4.12364 2.40371C4.05092 2.66665 4.01484 2.93984 4.01484 3.22266H4.41484ZM4.50863 2.51225C4.57448 2.28301 4.66565 2.0693 4.78198 1.87057L4.43677 1.6685C4.3031 1.89685 4.19896 2.14146 4.12418 2.40182L4.50863 2.51225ZM4.78251 1.86966C4.89857 1.66896 5.03861 1.4879 5.20287 1.32606L4.92213 1.04113C4.73222 1.22824 4.57018 1.43781 4.43624 1.66941L4.78251 1.86966ZM5.20392 1.32502C5.36908 1.15986 5.55085 1.01934 5.74947 0.903072L5.5474 0.557866C5.31894 0.691598 5.11009 0.853161 4.92108 1.04217L5.20392 1.32502ZM5.74947 0.903072C5.94766 0.787062 6.16073 0.697377 6.38925 0.634168L6.28262 0.248644C6.02156 0.320852 5.7763 0.423876 5.5474 0.557866L5.74947 0.903072ZM6.39061 0.633787C6.61965 0.568694 6.85772 0.535938 7.10547 0.535938V0.135937C6.82196 0.135937 6.54702 0.173494 6.28126 0.249025L6.39061 0.633787ZM7.10547 0.535938C7.42821 0.535938 7.7378 0.59165 8.03541 0.702953L8.17553 0.328297C7.83252 0.200016 7.47543 0.135937 7.10547 0.135937V0.535938ZM8.03675 0.70345C8.33481 0.812496 8.60459 0.969753 8.84703 1.17583L9.10609 0.87105C8.8277 0.634414 8.51675 0.453129 8.17419 0.3278L8.03675 0.70345ZM8.80506 0.920538L8.21913 1.8971L8.56212 2.1029L9.14806 1.12634L8.80506 0.920538ZM8.53312 1.85966C8.34589 1.66955 8.1293 1.52083 7.88451 1.41428L7.72486 1.78104C7.92278 1.86719 8.09682 1.9867 8.24813 2.14034L8.53312 1.85966ZM7.88631 1.41507C7.63903 1.30452 7.37811 1.24922 7.10547 1.24922V1.64922C7.32241 1.64922 7.52764 1.69288 7.72306 1.78024L7.88631 1.41507ZM7.10547 1.24922C6.83439 1.24922 6.57673 1.30129 6.33448 1.40636L6.49365 1.77333C6.68369 1.6909 6.88696 1.64922 7.10547 1.64922V1.24922ZM6.33366 1.40671C6.09786 1.51024 5.88955 1.65182 5.71014 1.83123L5.99298 2.11408C6.13649 1.97057 6.30318 1.85695 6.49446 1.77297L6.33366 1.40671ZM5.7113 1.83009C5.53078 2.00769 5.38882 2.21682 5.28527 2.45557L5.65223 2.61474C5.73618 2.42121 5.84942 2.25533 5.99183 2.11522L5.7113 1.83009ZM5.28562 2.45476C5.18019 2.6949 5.12812 2.95159 5.12812 3.22266H5.52813C5.52813 3.00414 5.56981 2.8025 5.65188 2.61555L5.28562 2.45476ZM5.12812 3.22266C5.12812 3.49603 5.18008 3.75504 5.28527 3.99755L5.65223 3.83839C5.56992 3.64861 5.52813 3.44407 5.52813 3.22266H5.12812ZM5.28527 3.99755C5.3887 4.23602 5.53033 4.44599 5.71014 4.6258L5.99298 4.34295C5.84988 4.19985 5.7363 4.03221 5.65223 3.83839L5.28527 3.99755ZM5.71014 4.6258C5.88955 4.80521 6.09786 4.94679 6.33366 5.05032L6.49446 4.68406C6.30318 4.60008 6.13649 4.48646 5.99298 4.34295L5.71014 4.6258ZM6.33448 5.05067C6.57673 5.15574 6.83439 5.20781 7.10547 5.20781V4.80781C6.88696 4.80781 6.68369 4.76613 6.49365 4.6837L6.33448 5.05067ZM7.10547 5.20781C7.26232 5.20781 7.41565 5.18891 7.56503 5.15083L7.46622 4.76323C7.34997 4.79286 7.22987 4.80781 7.10547 4.80781V5.20781ZM7.56503 5.15083C7.71136 5.11353 7.85111 5.06172 7.98397 4.99529L7.80509 4.63752C7.69837 4.69088 7.58552 4.73282 7.46622 4.76323L7.56503 5.15083ZM8.09453 4.81641V3.22266H7.69453V4.81641H8.09453ZM7.89453 3.42266H8.97656V3.02266H7.89453V3.42266ZM8.77656 3.22266V5.43359H9.17656V3.22266H8.77656Z" fill="#4EFF8F" mask="url(#path-8-outside-1_278_14)"/>
</g>
<defs>
<filter id="filter0_d_278_14" x="-1.9" y="3.1" width="17.8" height="15.8" filterUnits="userSpaceOnUse" color-interpolation-filters="sRGB">
<feFlood flood-opacity="0" result="BackgroundImageFix"/>
<feColorMatrix in="SourceAlpha" type="matrix" values="0 0 0 0 0 0 0 0 0 0 0 0 0 0 0 0 0 0 127 0" result="hardAlpha"/>
<feMorphology radius="1" operator="dilate" in="SourceAlpha" result="effect1_dropShadow_278_14"/>
<feOffset/>
<feGaussianBlur stdDeviation="2.95"/>
<feComposite in2="hardAlpha" operator="out"/>
<feColorMatrix type="matrix" values="0 0 0 0 0.604834 0 0 0 0 1 0 0 0 0 0.749728 0 0 0 1 0"/>
<feBlend mode="normal" in2="BackgroundImageFix" result="effect1_dropShadow_278_14"/>
<feBlend mode="normal" in="SourceGraphic" in2="effect1_dropShadow_278_14" result="shape"/>
</filter>
<clipPath id="clip0_278_14">
<rect width="15" height="15" fill="white"/>
</clipPath>
</defs>
</svg>
