<svg width="15" height="15" viewBox="0 0 15 15" fill="none" xmlns="http://www.w3.org/2000/svg">
<g clip-path="url(#clip0_278_39)">
<path d="M0 13H15" stroke="#AEAEAE"/>
<path d="M0 11H15" stroke="#AEAEAE"/>
<path d="M0 9H15" stroke="#AEAEAE"/>
<path d="M0 7H15" stroke="#AEAEAE"/>
<path d="M0 5H15" stroke="#AEAEAE"/>
<g filter="url(#filter0_d_278_39)">
<ellipse cx="7" cy="8" rx="2" ry="1" fill="#BD700A"/>
<path d="M8.9 8C8.9 8.21786 8.72079 8.44201 8.36949 8.61766C8.02418 8.79032 7.54013 8.9 7 8.9C6.45987 8.9 5.97582 8.79032 5.63051 8.61766C5.27921 8.44201 5.1 8.21786 5.1 8C5.1 7.78214 5.27921 7.55799 5.63051 7.38234C5.97582 7.20968 6.45987 7.1 7 7.1C7.54013 7.1 8.02418 7.20968 8.36949 7.38234C8.72079 7.55799 8.9 7.78214 8.9 8Z" stroke="#FFA408" stroke-width="0.2"/>
</g>
<mask id="path-8-outside-1_278_39" maskUnits="userSpaceOnUse" x="4" y="0" width="6" height="7" fill="black">
<rect fill="white" x="4" width="6" height="7"/>
<path d="M8.99219 5.42578C8.73177 5.64974 8.4401 5.82161 8.11719 5.94141C7.79427 6.0612 7.45964 6.12109 7.11328 6.12109C6.84766 6.12109 6.59115 6.08594 6.34375 6.01562C6.09896 5.94792 5.86849 5.85156 5.65234 5.72656C5.4388 5.59896 5.24349 5.44661 5.06641 5.26953C4.88932 5.09245 4.73698 4.89714 4.60938 4.68359C4.48438 4.46745 4.38672 4.23698 4.31641 3.99219C4.2487 3.74479 4.21484 3.48828 4.21484 3.22266C4.21484 2.95703 4.2487 2.70052 4.31641 2.45312C4.38672 2.20573 4.48438 1.97526 4.60938 1.76172C4.73698 1.54557 4.88932 1.34896 5.06641 1.17188C5.24349 0.994792 5.4388 0.84375 5.65234 0.71875C5.86849 0.591146 6.09896 0.49349 6.34375 0.425781C6.59115 0.355469 6.84766 0.320312 7.11328 0.320312C7.45964 0.320312 7.79427 0.380208 8.11719 0.5C8.4401 0.617188 8.73177 0.789062 8.99219 1.01562L8.39844 1.99219C8.23438 1.8151 8.04036 1.67969 7.81641 1.58594C7.59245 1.48958 7.35807 1.44141 7.11328 1.44141C6.86589 1.44141 6.63411 1.48828 6.41797 1.58203C6.20182 1.67578 6.01302 1.80339 5.85156 1.96484C5.6901 2.1237 5.5625 2.3125 5.46875 2.53125C5.375 2.7474 5.32812 2.97786 5.32812 3.22266C5.32812 3.46745 5.375 3.69792 5.46875 3.91406C5.5625 4.1276 5.6901 4.3151 5.85156 4.47656C6.01302 4.63802 6.20182 4.76562 6.41797 4.85938C6.63411 4.95312 6.86589 5 7.11328 5C7.35807 5 7.59245 4.95312 7.81641 4.85938C8.04036 4.76302 8.23438 4.6263 8.39844 4.44922L8.99219 5.42578Z"/>
</mask>
<path d="M8.99219 5.42578C8.73177 5.64974 8.4401 5.82161 8.11719 5.94141C7.79427 6.0612 7.45964 6.12109 7.11328 6.12109C6.84766 6.12109 6.59115 6.08594 6.34375 6.01562C6.09896 5.94792 5.86849 5.85156 5.65234 5.72656C5.4388 5.59896 5.24349 5.44661 5.06641 5.26953C4.88932 5.09245 4.73698 4.89714 4.60938 4.68359C4.48438 4.46745 4.38672 4.23698 4.31641 3.99219C4.2487 3.74479 4.21484 3.48828 4.21484 3.22266C4.21484 2.95703 4.2487 2.70052 4.31641 2.45312C4.38672 2.20573 4.48438 1.97526 4.60938 1.76172C4.73698 1.54557 4.88932 1.34896 5.06641 1.17188C5.24349 0.994792 5.4388 0.84375 5.65234 0.71875C5.86849 0.591146 6.09896 0.49349 6.34375 0.425781C6.59115 0.355469 6.84766 0.320312 7.11328 0.320312C7.45964 0.320312 7.79427 0.380208 8.11719 0.5C8.4401 0.617188 8.73177 0.789062 8.99219 1.01562L8.39844 1.99219C8.23438 1.8151 8.04036 1.67969 7.81641 1.58594C7.59245 1.48958 7.35807 1.44141 7.11328 1.44141C6.86589 1.44141 6.63411 1.48828 6.41797 1.58203C6.20182 1.67578 6.01302 1.80339 5.85156 1.96484C5.6901 2.1237 5.5625 2.3125 5.46875 2.53125C5.375 2.7474 5.32812 2.97786 5.32812 3.22266C5.32812 3.46745 5.375 3.69792 5.46875 3.91406C5.5625 4.1276 5.6901 4.3151 5.85156 4.47656C6.01302 4.63802 6.20182 4.76562 6.41797 4.85938C6.63411 4.95312 6.86589 5 7.11328 5C7.35807 5 7.59245 4.95312 7.81641 4.85938C8.04036 4.76302 8.23438 4.6263 8.39844 4.44922L8.99219 5.42578Z" fill="#BD700A"/>
<path d="M8.99219 5.42578L9.1226 5.57742L9.2512 5.46682L9.16308 5.32188L8.99219 5.42578ZM8.11719 5.94141L8.04763 5.75389L8.11719 5.94141ZM6.34375 6.01562L6.39843 5.82324L6.39707 5.82286L6.34375 6.01562ZM5.65234 5.72656L5.54974 5.89826L5.55222 5.8997L5.65234 5.72656ZM4.60938 4.68359L4.43622 4.78373L4.43769 4.78618L4.60938 4.68359ZM4.31641 3.99219L4.12349 4.04499L4.12418 4.0474L4.31641 3.99219ZM4.31641 2.45312L4.12402 2.39845L4.1235 2.40033L4.31641 2.45312ZM4.60938 1.76172L4.43715 1.66004L4.43677 1.66068L4.60938 1.76172ZM5.65234 0.71875L5.75338 0.891354L5.75402 0.890977L5.65234 0.71875ZM6.34375 0.425781L6.39707 0.618548L6.39843 0.618162L6.34375 0.425781ZM8.11719 0.5L8.04762 0.687518L8.04896 0.688003L8.11719 0.5ZM8.99219 1.01562L9.16308 1.11953L9.25069 0.975428L9.12346 0.864736L8.99219 1.01562ZM8.39844 1.99219L8.25173 2.12811L8.43173 2.3224L8.56933 2.09609L8.39844 1.99219ZM7.81641 1.58594L7.73736 1.76966L7.73918 1.77043L7.81641 1.58594ZM5.85156 1.96484L5.99183 2.10741L5.99298 2.10627L5.85156 1.96484ZM5.46875 2.53125L5.65224 2.61083L5.65258 2.61003L5.46875 2.53125ZM5.46875 3.91406L5.28526 3.99365L5.28562 3.99446L5.46875 3.91406ZM5.85156 4.47656L5.71014 4.61798L5.85156 4.47656ZM7.81641 4.85938L7.89364 5.04387L7.89545 5.04309L7.81641 4.85938ZM8.39844 4.44922L8.56933 4.34532L8.43173 4.119L8.25173 4.31329L8.39844 4.44922ZM8.86178 5.27414C8.61941 5.48258 8.34836 5.64233 8.04763 5.75389L8.18675 6.12892C8.53185 6.0009 8.84413 5.81689 9.1226 5.57742L8.86178 5.27414ZM8.04763 5.75389C7.7471 5.86538 7.43603 5.92109 7.11328 5.92109V6.32109C7.48324 6.32109 7.84144 6.25702 8.18675 6.12892L8.04763 5.75389ZM7.11328 5.92109C6.86554 5.92109 6.62746 5.88834 6.39843 5.82324L6.28907 6.20801C6.55483 6.28354 6.82978 6.32109 7.11328 6.32109V5.92109ZM6.39707 5.82286C6.16836 5.7596 5.95366 5.66978 5.75247 5.55343L5.55222 5.8997C5.78332 6.03335 6.02955 6.13623 6.29043 6.20839L6.39707 5.82286ZM5.75493 5.55488C5.55563 5.43578 5.37334 5.29362 5.20783 5.12811L4.92498 5.41095C5.11364 5.5996 5.32198 5.76213 5.54975 5.89825L5.75493 5.55488ZM5.20783 5.12811C5.04231 4.9626 4.90016 4.78031 4.78106 4.581L4.43769 4.78618C4.5738 5.01396 4.73633 5.2223 4.92498 5.41095L5.20783 5.12811ZM4.78251 4.58347C4.66585 4.38174 4.57453 4.16639 4.50863 3.93697L4.12418 4.0474C4.19891 4.30757 4.3029 4.55316 4.43624 4.78372L4.78251 4.58347ZM4.50931 3.93939C4.44648 3.7098 4.41484 3.47108 4.41484 3.22266H4.01484C4.01484 3.50548 4.05092 3.77978 4.1235 4.04498L4.50931 3.93939ZM4.41484 3.22266C4.41484 2.97423 4.44648 2.73551 4.50931 2.50592L4.1235 2.40033C4.05092 2.66553 4.01484 2.93983 4.01484 3.22266H4.41484ZM4.50879 2.5078C4.57467 2.27599 4.66583 2.06117 4.78198 1.86275L4.43677 1.66068C4.30292 1.88935 4.19877 2.13547 4.12403 2.39845L4.50879 2.5078ZM4.7816 1.86339C4.90067 1.66171 5.04267 1.47845 5.20783 1.3133L4.92498 1.03045C4.73597 1.21946 4.57329 1.42944 4.43715 1.66004L4.7816 1.86339ZM5.20783 1.3133C5.37298 1.14814 5.55475 1.00762 5.75338 0.891353L5.55131 0.546147C5.32285 0.679879 5.114 0.841443 4.92498 1.03045L5.20783 1.3133ZM5.75402 0.890977C5.95484 0.772421 6.16902 0.681619 6.39707 0.618543L6.29043 0.233019C6.02889 0.30536 5.78214 0.409871 5.55067 0.546523L5.75402 0.890977ZM6.39843 0.618162C6.62746 0.553069 6.86554 0.520313 7.11328 0.520313V0.120312C6.82978 0.120312 6.55483 0.157869 6.28907 0.2334L6.39843 0.618162ZM7.11328 0.520313C7.43603 0.520313 7.7471 0.576027 8.04763 0.687513L8.18675 0.312487C7.84144 0.184389 7.48324 0.120312 7.11328 0.120312V0.520313ZM8.04896 0.688003C8.34864 0.796759 8.61896 0.956014 8.86091 1.16651L9.12346 0.864736C8.84458 0.622111 8.53156 0.437616 8.18541 0.311997L8.04896 0.688003ZM8.8213 0.911722L8.22755 1.88828L8.56933 2.09609L9.16308 1.11953L8.8213 0.911722ZM8.54515 1.85626C8.36155 1.65809 8.1438 1.50617 7.89363 1.40145L7.73918 1.77043C7.93693 1.8532 8.1072 1.97212 8.25173 2.12811L8.54515 1.85626ZM7.89545 1.40222C7.64642 1.29508 7.38514 1.24141 7.11328 1.24141V1.64141C7.33101 1.64141 7.53848 1.68409 7.73736 1.76966L7.89545 1.40222ZM7.11328 1.24141C6.8399 1.24141 6.5809 1.29336 6.33839 1.39855L6.49755 1.76552C6.68733 1.6832 6.89187 1.64141 7.11328 1.64141V1.24141ZM6.33839 1.39855C6.09991 1.50198 5.88995 1.64361 5.71014 1.82342L5.99298 2.10627C6.13609 1.96316 6.30373 1.84958 6.49755 1.76552L6.33839 1.39855ZM5.7113 1.82228C5.53038 2.00028 5.38838 2.21106 5.28492 2.45247L5.65258 2.61003C5.73662 2.41394 5.84983 2.24712 5.99183 2.10741L5.7113 1.82228ZM5.28527 2.45167C5.1802 2.69391 5.12812 2.95158 5.12812 3.22266H5.52813C5.52813 3.00415 5.5698 2.80088 5.65223 2.61083L5.28527 2.45167ZM5.12812 3.22266C5.12812 3.49373 5.1802 3.7514 5.28527 3.99365L5.65223 3.83448C5.5698 3.64443 5.52813 3.44116 5.52813 3.22266H5.12812ZM5.28562 3.99446C5.38914 4.23026 5.53073 4.43857 5.71014 4.61798L5.99298 4.33514C5.84948 4.19164 5.73586 4.02495 5.65188 3.83366L5.28562 3.99446ZM5.71014 4.61798C5.88995 4.79779 6.09991 4.93943 6.33839 5.04286L6.49755 4.67589C6.30373 4.59182 6.13609 4.47825 5.99298 4.33514L5.71014 4.61798ZM6.33839 5.04286C6.5809 5.14805 6.8399 5.2 7.11328 5.2V4.8C6.89187 4.8 6.68733 4.7582 6.49755 4.67589L6.33839 5.04286ZM7.11328 5.2C7.38436 5.2 7.64501 5.14794 7.89363 5.04386L7.73918 4.67489C7.53989 4.75831 7.33178 4.8 7.11328 4.8V5.2ZM7.89545 5.04309C8.14479 4.93582 8.36192 4.78292 8.54515 4.58514L8.25173 4.31329C8.10683 4.46969 7.93594 4.59022 7.73736 4.67566L7.89545 5.04309ZM8.22755 4.55312L8.8213 5.52968L9.16308 5.32188L8.56933 4.34532L8.22755 4.55312Z" fill="#FFA408" mask="url(#path-8-outside-1_278_39)"/>
</g>
<defs>
<filter id="filter0_d_278_39" x="-1.9" y="0.0999999" width="17.8" height="15.8" filterUnits="userSpaceOnUse" color-interpolation-filters="sRGB">
<feFlood flood-opacity="0" result="BackgroundImageFix"/>
<feColorMatrix in="SourceAlpha" type="matrix" values="0 0 0 0 0 0 0 0 0 0 0 0 0 0 0 0 0 0 127 0" result="hardAlpha"/>
<feMorphology radius="1" operator="dilate" in="SourceAlpha" result="effect1_dropShadow_278_39"/>
<feOffset/>
<feGaussianBlur stdDeviation="2.95"/>
<feComposite in2="hardAlpha" operator="out"/>
<feColorMatrix type="matrix" values="0 0 0 0 1 0 0 0 0 0.839415 0 0 0 0 0.564128 0 0 0 1 0"/>
<feBlend mode="normal" in2="BackgroundImageFix" result="effect1_dropShadow_278_39"/>
<feBlend mode="normal" in="SourceGraphic" in2="effect1_dropShadow_278_39" result="shape"/>
</filter>
<clipPath id="clip0_278_39">
<rect width="15" height="15" fill="white"/>
</clipPath>
</defs>
</svg>
