<svg width="15" height="15" viewBox="0 0 15 15" fill="none" xmlns="http://www.w3.org/2000/svg">
<g clip-path="url(#clip0_278_47)">
<path d="M0 13H15" stroke="#AEAEAE"/>
<path d="M0 11H15" stroke="#AEAEAE"/>
<path d="M0 9H15" stroke="#AEAEAE"/>
<path d="M0 7H15" stroke="#AEAEAE"/>
<path d="M0 5H15" stroke="#AEAEAE"/>
<g filter="url(#filter0_d_278_47)">
<ellipse cx="7" cy="14" rx="2" ry="1" fill="#BDBA0A"/>
<path d="M8.9 14C8.9 14.2179 8.72079 14.442 8.36949 14.6177C8.02418 14.7903 7.54013 14.9 7 14.9C6.45987 14.9 5.97582 14.7903 5.63051 14.6177C5.27921 14.442 5.1 14.2179 5.1 14C5.1 13.7821 5.27921 13.558 5.63051 13.3823C5.97582 13.2097 6.45987 13.1 7 13.1C7.54013 13.1 8.02418 13.2097 8.36949 13.3823C8.72079 13.558 8.9 13.7821 8.9 14Z" stroke="#FBFF08" stroke-width="0.2"/>
</g>
<mask id="path-8-outside-1_278_47" maskUnits="userSpaceOnUse" x="5" y="0" width="6" height="7" fill="black">
<rect fill="white" x="5" width="6" height="7"/>
<path d="M10.0078 3.19922C10.0078 3.45703 9.97396 3.70573 9.90625 3.94531C9.84115 4.18229 9.7474 4.40495 9.625 4.61328C9.5026 4.81901 9.35677 5.00781 9.1875 5.17969C9.01823 5.34896 8.82943 5.49479 8.62109 5.61719C8.41276 5.73958 8.1888 5.83464 7.94922 5.90234C7.71224 5.96745 7.46484 6 7.20703 6H5.51953V0.398438H7.20703C7.46484 0.398438 7.71224 0.432292 7.94922 0.5C8.1888 0.565104 8.41276 0.658854 8.62109 0.78125C8.82943 0.903646 9.01823 1.05078 9.1875 1.22266C9.35677 1.39193 9.5026 1.58073 9.625 1.78906C9.7474 1.99479 9.84115 2.21745 9.90625 2.45703C9.97396 2.69401 10.0078 2.94141 10.0078 3.19922ZM8.88672 3.19922C8.88672 2.96745 8.84245 2.75 8.75391 2.54688C8.66797 2.34375 8.54818 2.16667 8.39453 2.01562C8.24349 1.86198 8.0651 1.74089 7.85938 1.65234C7.65625 1.5638 7.4388 1.51953 7.20703 1.51953H6.64844V4.87891H7.20703C7.4388 4.87891 7.65625 4.83594 7.85938 4.75C8.0651 4.66146 8.24349 4.54167 8.39453 4.39062C8.54818 4.23698 8.66797 4.05859 8.75391 3.85547C8.84245 3.64974 8.88672 3.43099 8.88672 3.19922Z"/>
</mask>
<path d="M10.0078 3.19922C10.0078 3.45703 9.97396 3.70573 9.90625 3.94531C9.84115 4.18229 9.7474 4.40495 9.625 4.61328C9.5026 4.81901 9.35677 5.00781 9.1875 5.17969C9.01823 5.34896 8.82943 5.49479 8.62109 5.61719C8.41276 5.73958 8.1888 5.83464 7.94922 5.90234C7.71224 5.96745 7.46484 6 7.20703 6H5.51953V0.398438H7.20703C7.46484 0.398438 7.71224 0.432292 7.94922 0.5C8.1888 0.565104 8.41276 0.658854 8.62109 0.78125C8.82943 0.903646 9.01823 1.05078 9.1875 1.22266C9.35677 1.39193 9.5026 1.58073 9.625 1.78906C9.7474 1.99479 9.84115 2.21745 9.90625 2.45703C9.97396 2.69401 10.0078 2.94141 10.0078 3.19922ZM8.88672 3.19922C8.88672 2.96745 8.84245 2.75 8.75391 2.54688C8.66797 2.34375 8.54818 2.16667 8.39453 2.01562C8.24349 1.86198 8.0651 1.74089 7.85938 1.65234C7.65625 1.5638 7.4388 1.51953 7.20703 1.51953H6.64844V4.87891H7.20703C7.4388 4.87891 7.65625 4.83594 7.85938 4.75C8.0651 4.66146 8.24349 4.54167 8.39453 4.39062C8.54818 4.23698 8.66797 4.05859 8.75391 3.85547C8.84245 3.64974 8.88672 3.43099 8.88672 3.19922Z" fill="#BDBA0A"/>
<path d="M9.90625 3.94531L9.71378 3.89092L9.7134 3.89233L9.90625 3.94531ZM9.625 4.61328L9.79688 4.71554L9.79744 4.71459L9.625 4.61328ZM9.1875 5.17969L9.32893 5.32111L9.33 5.32003L9.1875 5.17969ZM7.94922 5.90234L8.0022 6.0952L8.00361 6.09481L7.94922 5.90234ZM5.51953 6H5.31953V6.2H5.51953V6ZM5.51953 0.398438V0.198437H5.31953V0.398438H5.51953ZM7.94922 0.5L7.89427 0.692321L7.89677 0.693001L7.94922 0.5ZM9.1875 1.22266L9.045 1.363L9.04608 1.36408L9.1875 1.22266ZM9.625 1.78906L9.45256 1.89037L9.45312 1.89132L9.625 1.78906ZM9.90625 2.45703L9.71323 2.50948L9.71395 2.51198L9.90625 2.45703ZM8.75391 2.54688L8.5697 2.62481L8.57057 2.62679L8.75391 2.54688ZM8.39453 2.01562L8.25189 2.15585L8.25432 2.15825L8.39453 2.01562ZM7.85938 1.65234L7.77946 1.83568L7.78031 1.83605L7.85938 1.65234ZM6.64844 1.51953V1.31953H6.44844V1.51953H6.64844ZM6.64844 4.87891H6.44844V5.07891H6.64844V4.87891ZM7.85938 4.75L7.9373 4.9342L7.93844 4.93371L7.85938 4.75ZM8.39453 4.39062L8.25311 4.2492L8.39453 4.39062ZM8.75391 3.85547L8.57019 3.7764L8.56971 3.77754L8.75391 3.85547ZM9.80781 3.19922C9.80781 3.4393 9.77632 3.66966 9.71379 3.89092L10.0987 3.9997C10.1716 3.7418 10.2078 3.47477 10.2078 3.19922H9.80781ZM9.7134 3.89233C9.65286 4.11267 9.5659 4.31904 9.45256 4.51197L9.79744 4.71459C9.92889 4.49086 10.0294 4.25192 10.0991 3.99829L9.7134 3.89233ZM9.45312 4.51102C9.33901 4.70282 9.20307 4.87885 9.045 5.03935L9.33 5.32003C9.51047 5.13677 9.66619 4.93521 9.79688 4.71554L9.45312 4.51102ZM9.04608 5.03827C8.88892 5.19542 8.71362 5.33086 8.51978 5.44475L8.7224 5.78963C8.94523 5.65872 9.14754 5.50249 9.32892 5.32111L9.04608 5.03827ZM8.51978 5.44475C8.32661 5.55823 8.11848 5.64668 7.89483 5.70988L8.00361 6.09481C8.25912 6.0226 8.49891 5.92093 8.7224 5.78963L8.51978 5.44475ZM7.89624 5.70949C7.67735 5.76962 7.44782 5.8 7.20703 5.8V6.2C7.48187 6.2 7.74713 6.16527 8.0022 6.0952L7.89624 5.70949ZM7.20703 5.8H5.51953V6.2H7.20703V5.8ZM5.71953 6V0.398438H5.31953V6H5.71953ZM5.51953 0.598438H7.20703V0.198437H5.51953V0.598438ZM7.20703 0.598438C7.44712 0.598438 7.67597 0.629932 7.89427 0.692305L8.00416 0.307695C7.74851 0.234651 7.48257 0.198437 7.20703 0.198437V0.598438ZM7.89677 0.693001C8.1197 0.75358 8.32717 0.840533 8.51978 0.953692L8.7224 0.608808C8.49835 0.477176 8.2579 0.376629 8.00166 0.306999L7.89677 0.693001ZM8.51978 0.953692C8.71307 1.06725 8.88802 1.2036 9.045 1.36299L9.33 1.08232C9.14844 0.897967 8.94579 0.740044 8.7224 0.608808L8.51978 0.953692ZM9.04608 1.36408C9.20324 1.52124 9.33868 1.69653 9.45256 1.89037L9.79744 1.68775C9.66653 1.46493 9.51031 1.26262 9.32892 1.08123L9.04608 1.36408ZM9.45312 1.89132C9.56591 2.08091 9.65272 2.28673 9.71325 2.50948L10.0993 2.40459C10.0296 2.14817 9.92888 1.90867 9.79688 1.6868L9.45312 1.89132ZM9.71395 2.51198C9.77632 2.73028 9.80781 2.95913 9.80781 3.19922H10.2078C10.2078 2.92368 10.1716 2.65774 10.0986 2.40209L9.71395 2.51198ZM9.08672 3.19922C9.08672 2.94124 9.03728 2.69645 8.93725 2.46696L8.57057 2.62679C8.64762 2.80355 8.68672 2.99366 8.68672 3.19922H9.08672ZM8.9381 2.46895C8.84215 2.24216 8.70761 2.04294 8.53474 1.873L8.25432 2.15825C8.38874 2.29039 8.49379 2.44534 8.56971 2.6248L8.9381 2.46895ZM8.53716 1.87542C8.36723 1.70256 8.16701 1.56701 7.93844 1.46864L7.78031 1.83605C7.96319 1.91476 8.11975 2.0214 8.25191 2.15583L8.53716 1.87542ZM7.93929 1.469C7.7098 1.36897 7.46501 1.31953 7.20703 1.31953V1.71953C7.41259 1.71953 7.6027 1.75863 7.77946 1.83568L7.93929 1.469ZM7.20703 1.31953H6.64844V1.71953H7.20703V1.31953ZM6.44844 1.51953V4.87891H6.84844V1.51953H6.44844ZM6.64844 5.07891H7.20703V4.67891H6.64844V5.07891ZM7.20703 5.07891C7.46419 5.07891 7.70828 5.03109 7.9373 4.93419L7.78145 4.56581C7.60422 4.64079 7.41342 4.67891 7.20703 4.67891V5.07891ZM7.93844 4.93371C8.1663 4.83564 8.36613 4.70187 8.53595 4.53205L8.25311 4.2492C8.12085 4.38146 7.96391 4.48727 7.78031 4.56629L7.93844 4.93371ZM8.53595 4.53205C8.70809 4.35991 8.84228 4.15988 8.9381 3.9334L8.56971 3.77754C8.49366 3.95731 8.38826 4.11405 8.25311 4.2492L8.53595 4.53205ZM8.93761 3.93453C9.03728 3.70296 9.08672 3.45721 9.08672 3.19922H8.68672C8.68672 3.40477 8.64762 3.59652 8.5702 3.7764L8.93761 3.93453Z" fill="#FBFF08" mask="url(#path-8-outside-1_278_47)"/>
</g>
<defs>
<filter id="filter0_d_278_47" x="-1.9" y="6.1" width="17.8" height="15.8" filterUnits="userSpaceOnUse" color-interpolation-filters="sRGB">
<feFlood flood-opacity="0" result="BackgroundImageFix"/>
<feColorMatrix in="SourceAlpha" type="matrix" values="0 0 0 0 0 0 0 0 0 0 0 0 0 0 0 0 0 0 127 0" result="hardAlpha"/>
<feMorphology radius="1" operator="dilate" in="SourceAlpha" result="effect1_dropShadow_278_47"/>
<feOffset/>
<feGaussianBlur stdDeviation="2.95"/>
<feComposite in2="hardAlpha" operator="out"/>
<feColorMatrix type="matrix" values="0 0 0 0 0.993318 0 0 0 0 1 0 0 0 0 0.58737 0 0 0 1 0"/>
<feBlend mode="normal" in2="BackgroundImageFix" result="effect1_dropShadow_278_47"/>
<feBlend mode="normal" in="SourceGraphic" in2="effect1_dropShadow_278_47" result="shape"/>
</filter>
<clipPath id="clip0_278_47">
<rect width="15" height="15" fill="white"/>
</clipPath>
</defs>
</svg>
