<svg width="15" height="15" viewBox="0 0 15 15" fill="none" xmlns="http://www.w3.org/2000/svg">
<g clip-path="url(#clip0_278_31)">
<path d="M0 13H15" stroke="#AEAEAE"/>
<path d="M0 11H15" stroke="#AEAEAE"/>
<path d="M0 9H15" stroke="#AEAEAE"/>
<path d="M0 7H15" stroke="#AEAEAE"/>
<path d="M0 5H15" stroke="#AEAEAE"/>
<g filter="url(#filter0_d_278_31)">
<ellipse cx="7" cy="9" rx="2" ry="1" fill="#BD2E0A"/>
<path d="M8.9 9C8.9 9.21786 8.72079 9.44201 8.36949 9.61766C8.02418 9.79032 7.54013 9.9 7 9.9C6.45987 9.9 5.97582 9.79032 5.63051 9.61766C5.27921 9.44201 5.1 9.21786 5.1 9C5.1 8.78214 5.27921 8.55799 5.63051 8.38234C5.97582 8.20968 6.45987 8.1 7 8.1C7.54013 8.1 8.02418 8.20968 8.36949 8.38234C8.72079 8.55799 8.9 8.78214 8.9 9Z" stroke="#FF8274" stroke-width="0.2"/>
</g>
<mask id="path-8-outside-1_278_31" maskUnits="userSpaceOnUse" x="4" y="0" width="6" height="7" fill="black">
<rect fill="white" x="4" width="6" height="7"/>
<path d="M9 4.32031C9 4.55208 8.95573 4.76953 8.86719 4.97266C8.77865 5.17578 8.65755 5.35417 8.50391 5.50781C8.35286 5.65885 8.17578 5.77865 7.97266 5.86719C7.76953 5.95573 7.55208 6 7.32031 6H4.51953V0.398438H7.32031C7.55208 0.398438 7.76953 0.442708 7.97266 0.53125C8.17578 0.619792 8.35286 0.740885 8.50391 0.894531C8.65755 1.04557 8.77865 1.22266 8.86719 1.42578C8.95573 1.62891 9 1.84635 9 2.07812C9 2.18229 8.98568 2.28906 8.95703 2.39844C8.92839 2.50781 8.88802 2.61328 8.83594 2.71484C8.78385 2.81641 8.72135 2.90885 8.64844 2.99219C8.57552 3.07552 8.49479 3.14453 8.40625 3.19922C8.4974 3.2487 8.57943 3.31641 8.65234 3.40234C8.72526 3.48568 8.78776 3.57812 8.83984 3.67969C8.89193 3.78125 8.93099 3.88802 8.95703 4C8.98568 4.10938 9 4.21615 9 4.32031ZM5.64062 4.87891H7.32031C7.39844 4.87891 7.47135 4.86458 7.53906 4.83594C7.60677 4.80729 7.66536 4.76823 7.71484 4.71875C7.76693 4.66667 7.80729 4.60677 7.83594 4.53906C7.86458 4.47135 7.87891 4.39844 7.87891 4.32031C7.87891 4.24219 7.86458 4.16927 7.83594 4.10156C7.80729 4.03385 7.76693 3.97526 7.71484 3.92578C7.66536 3.8737 7.60677 3.83333 7.53906 3.80469C7.47135 3.77604 7.39844 3.76172 7.32031 3.76172H5.64062V4.87891ZM5.64062 2.64062H7.32031C7.39844 2.64062 7.47135 2.6263 7.53906 2.59766C7.60677 2.56901 7.66536 2.52995 7.71484 2.48047C7.76693 2.42839 7.80729 2.36849 7.83594 2.30078C7.86458 2.23047 7.87891 2.15625 7.87891 2.07812C7.87891 2 7.86458 1.92708 7.83594 1.85938C7.80729 1.79167 7.76693 1.73307 7.71484 1.68359C7.66536 1.63151 7.60677 1.59115 7.53906 1.5625C7.47135 1.53385 7.39844 1.51953 7.32031 1.51953H5.64062V2.64062Z"/>
</mask>
<path d="M9 4.32031C9 4.55208 8.95573 4.76953 8.86719 4.97266C8.77865 5.17578 8.65755 5.35417 8.50391 5.50781C8.35286 5.65885 8.17578 5.77865 7.97266 5.86719C7.76953 5.95573 7.55208 6 7.32031 6H4.51953V0.398438H7.32031C7.55208 0.398438 7.76953 0.442708 7.97266 0.53125C8.17578 0.619792 8.35286 0.740885 8.50391 0.894531C8.65755 1.04557 8.77865 1.22266 8.86719 1.42578C8.95573 1.62891 9 1.84635 9 2.07812C9 2.18229 8.98568 2.28906 8.95703 2.39844C8.92839 2.50781 8.88802 2.61328 8.83594 2.71484C8.78385 2.81641 8.72135 2.90885 8.64844 2.99219C8.57552 3.07552 8.49479 3.14453 8.40625 3.19922C8.4974 3.2487 8.57943 3.31641 8.65234 3.40234C8.72526 3.48568 8.78776 3.57812 8.83984 3.67969C8.89193 3.78125 8.93099 3.88802 8.95703 4C8.98568 4.10938 9 4.21615 9 4.32031ZM5.64062 4.87891H7.32031C7.39844 4.87891 7.47135 4.86458 7.53906 4.83594C7.60677 4.80729 7.66536 4.76823 7.71484 4.71875C7.76693 4.66667 7.80729 4.60677 7.83594 4.53906C7.86458 4.47135 7.87891 4.39844 7.87891 4.32031C7.87891 4.24219 7.86458 4.16927 7.83594 4.10156C7.80729 4.03385 7.76693 3.97526 7.71484 3.92578C7.66536 3.8737 7.60677 3.83333 7.53906 3.80469C7.47135 3.77604 7.39844 3.76172 7.32031 3.76172H5.64062V4.87891ZM5.64062 2.64062H7.32031C7.39844 2.64062 7.47135 2.6263 7.53906 2.59766C7.60677 2.56901 7.66536 2.52995 7.71484 2.48047C7.76693 2.42839 7.80729 2.36849 7.83594 2.30078C7.86458 2.23047 7.87891 2.15625 7.87891 2.07812C7.87891 2 7.86458 1.92708 7.83594 1.85938C7.80729 1.79167 7.76693 1.73307 7.71484 1.68359C7.66536 1.63151 7.60677 1.59115 7.53906 1.5625C7.47135 1.53385 7.39844 1.51953 7.32031 1.51953H5.64062V2.64062Z" fill="#BD2E0A"/>
<path d="M8.50391 5.50781L8.64533 5.64923L8.50391 5.50781ZM4.51953 6H4.31953V6.2H4.51953V6ZM4.51953 0.398438V0.198437H4.31953V0.398438H4.51953ZM8.50391 0.894531L8.36126 1.03476L8.3637 1.03716L8.50391 0.894531ZM8.40625 3.19922L8.30115 3.02906L8.00759 3.21037L8.31083 3.37499L8.40625 3.19922ZM8.65234 3.40234L8.49982 3.53175L8.50183 3.53404L8.65234 3.40234ZM8.95703 4L8.76216 4.04532L8.76356 4.05067L8.95703 4ZM5.64062 4.87891H5.44062V5.07891H5.64062V4.87891ZM7.71484 4.71875L7.57342 4.57733L7.71484 4.71875ZM7.71484 3.92578L7.56965 4.06371L7.57709 4.07078L7.71484 3.92578ZM5.64062 3.76172V3.56172H5.44062V3.76172H5.64062ZM5.64062 2.64062H5.44062V2.84063H5.64062V2.64062ZM7.83594 2.30078L8.02015 2.37872L8.02116 2.37624L7.83594 2.30078ZM7.71484 1.68359L7.56965 1.82152L7.57709 1.82859L7.71484 1.68359ZM5.64062 1.51953V1.31953H5.44062V1.51953H5.64062ZM8.8 4.32031C8.8 4.52587 8.7609 4.71598 8.68385 4.89274L9.05053 5.05257C9.15056 4.82308 9.2 4.57829 9.2 4.32031H8.8ZM8.68385 4.89274C8.60511 5.07338 8.49808 5.2308 8.36248 5.36639L8.64533 5.64923C8.81703 5.47754 8.95219 5.27818 9.05053 5.05257L8.68385 4.89274ZM8.36248 5.36639C8.2298 5.49907 8.07379 5.60493 7.89274 5.68385L8.05257 6.05053C8.27777 5.95236 8.47593 5.81863 8.64533 5.64923L8.36248 5.36639ZM7.89274 5.68385C7.71598 5.7609 7.52587 5.8 7.32031 5.8V6.2C7.57829 6.2 7.82308 6.15056 8.05257 6.05053L7.89274 5.68385ZM7.32031 5.8H4.51953V6.2H7.32031V5.8ZM4.71953 6V0.398438H4.31953V6H4.71953ZM4.51953 0.598438H7.32031V0.198437H4.51953V0.598438ZM7.32031 0.598438C7.52587 0.598438 7.71598 0.637541 7.89274 0.714589L8.05257 0.347911C7.82308 0.247876 7.57829 0.198437 7.32031 0.198437V0.598438ZM7.89274 0.714589C8.07308 0.793197 8.2287 0.899874 8.36128 1.03474L8.64653 0.754324C8.47703 0.581897 8.27849 0.446386 8.05257 0.347911L7.89274 0.714589ZM8.3637 1.03716C8.49856 1.16973 8.60524 1.32536 8.68385 1.5057L9.05053 1.34586C8.95205 1.11995 8.81654 0.921411 8.64411 0.751906L8.3637 1.03716ZM8.68385 1.5057C8.7609 1.68246 8.8 1.87256 8.8 2.07812H9.2C9.2 1.82014 9.15056 1.57536 9.05053 1.34586L8.68385 1.5057ZM8.8 2.07812C8.8 2.1638 8.78824 2.25353 8.76356 2.34777L9.15051 2.44911C9.18312 2.32459 9.2 2.20078 9.2 2.07812H8.8ZM8.76356 2.34777C8.73863 2.44295 8.70349 2.53482 8.65797 2.62358L9.0139 2.80611C9.07255 2.69174 9.11814 2.57267 9.15051 2.44911L8.76356 2.34777ZM8.65797 2.62358C8.61312 2.71104 8.55974 2.78983 8.49792 2.86049L8.79895 3.12389C8.88297 3.02787 8.95459 2.92177 9.0139 2.80611L8.65797 2.62358ZM8.49792 2.86049C8.4373 2.92977 8.37167 2.98551 8.30115 3.02906L8.51135 3.36938C8.61792 3.30356 8.71374 3.22127 8.79895 3.12389L8.49792 2.86049ZM8.31083 3.37499C8.37843 3.41169 8.44153 3.46301 8.49984 3.53174L8.80485 3.27295C8.71732 3.1698 8.61636 3.08571 8.50167 3.02345L8.31083 3.37499ZM8.50183 3.53404C8.56365 3.6047 8.61703 3.68349 8.66188 3.77095L9.01781 3.58842C8.95849 3.47276 8.88687 3.36666 8.80286 3.27064L8.50183 3.53404ZM8.66188 3.77095C8.70644 3.85783 8.73987 3.94916 8.76223 4.0453L9.15183 3.9547C9.12211 3.82688 9.07742 3.70467 9.01781 3.58842L8.66188 3.77095ZM8.76356 4.05067C8.78824 4.1449 8.8 4.23464 8.8 4.32031H9.2C9.2 4.19766 9.18312 4.07385 9.15051 3.94933L8.76356 4.05067ZM5.64062 5.07891H7.32031V4.67891H5.64062V5.07891ZM7.32031 5.07891C7.42351 5.07891 7.52311 5.05985 7.61699 5.02013L7.46113 4.65174C7.4196 4.66932 7.37337 4.67891 7.32031 4.67891V5.07891ZM7.61699 5.02013C7.7072 4.98197 7.78766 4.92878 7.85627 4.86017L7.57342 4.57733C7.54307 4.60768 7.50634 4.63262 7.46113 4.65174L7.61699 5.02013ZM7.85627 4.86017C7.92653 4.78991 7.98143 4.70847 8.02013 4.61699L7.65174 4.46113C7.63315 4.50508 7.60733 4.54342 7.57342 4.57733L7.85627 4.86017ZM8.02013 4.61699C8.05985 4.52311 8.07891 4.42351 8.07891 4.32031H7.67891C7.67891 4.37337 7.66932 4.4196 7.65174 4.46113L8.02013 4.61699ZM8.07891 4.32031C8.07891 4.21712 8.05985 4.11752 8.02013 4.02363L7.65174 4.17949C7.66932 4.22102 7.67891 4.26726 7.67891 4.32031H8.07891ZM8.02013 4.02363C7.98103 3.93122 7.92507 3.84964 7.85259 3.78078L7.57709 4.07078C7.60878 4.10088 7.63355 4.13649 7.65174 4.17949L8.02013 4.02363ZM7.85984 3.78803C7.79099 3.71555 7.7094 3.65959 7.61699 3.62049L7.46113 3.98888C7.50414 4.00708 7.53974 4.03185 7.56984 4.06353L7.85984 3.78803ZM7.61699 3.62049C7.52311 3.58077 7.42351 3.56172 7.32031 3.56172V3.96172C7.37337 3.96172 7.4196 3.97131 7.46113 3.98888L7.61699 3.62049ZM7.32031 3.56172H5.64062V3.96172H7.32031V3.56172ZM5.44062 3.76172V4.87891H5.84063V3.76172H5.44062ZM5.64062 2.84063H7.32031V2.44062H5.64062V2.84063ZM7.32031 2.84063C7.42351 2.84063 7.52311 2.82157 7.61699 2.78185L7.46113 2.41346C7.4196 2.43103 7.37337 2.44062 7.32031 2.44062V2.84063ZM7.61699 2.78185C7.7072 2.74368 7.78766 2.6905 7.85627 2.62189L7.57342 2.33905C7.54307 2.3694 7.50634 2.39434 7.46113 2.41346L7.61699 2.78185ZM7.85627 2.62189C7.92653 2.55163 7.98143 2.47018 8.02013 2.37871L7.65174 2.22285C7.63315 2.26679 7.60733 2.30514 7.57342 2.33905L7.85627 2.62189ZM8.02116 2.37624C8.05985 2.28127 8.07891 2.18136 8.07891 2.07812H7.67891C7.67891 2.13114 7.66932 2.17967 7.65072 2.22532L8.02116 2.37624ZM8.07891 2.07812C8.07891 1.97493 8.05985 1.87533 8.02013 1.78145L7.65174 1.9373C7.66932 1.97883 7.67891 2.02507 7.67891 2.07812H8.07891ZM8.02013 1.78145C7.98103 1.68904 7.92507 1.60745 7.85259 1.53859L7.57709 1.82859C7.60878 1.85869 7.63355 1.8943 7.65174 1.9373L8.02013 1.78145ZM7.85984 1.54584C7.79099 1.47336 7.7094 1.4174 7.61699 1.37831L7.46113 1.74669C7.50414 1.76489 7.53974 1.78966 7.56984 1.82134L7.85984 1.54584ZM7.61699 1.37831C7.52311 1.33859 7.42351 1.31953 7.32031 1.31953V1.71953C7.37337 1.71953 7.4196 1.72912 7.46113 1.74669L7.61699 1.37831ZM7.32031 1.31953H5.64062V1.71953H7.32031V1.31953ZM5.44062 1.51953V2.64062H5.84063V1.51953H5.44062Z" fill="#FF8274" mask="url(#path-8-outside-1_278_31)"/>
</g>
<defs>
<filter id="filter0_d_278_31" x="-1.9" y="1.1" width="17.8" height="15.8" filterUnits="userSpaceOnUse" color-interpolation-filters="sRGB">
<feFlood flood-opacity="0" result="BackgroundImageFix"/>
<feColorMatrix in="SourceAlpha" type="matrix" values="0 0 0 0 0 0 0 0 0 0 0 0 0 0 0 0 0 0 127 0" result="hardAlpha"/>
<feMorphology radius="1" operator="dilate" in="SourceAlpha" result="effect1_dropShadow_278_31"/>
<feOffset/>
<feGaussianBlur stdDeviation="2.95"/>
<feComposite in2="hardAlpha" operator="out"/>
<feColorMatrix type="matrix" values="0 0 0 0 1 0 0 0 0 0.676894 0 0 0 0 0.640706 0 0 0 1 0"/>
<feBlend mode="normal" in2="BackgroundImageFix" result="effect1_dropShadow_278_31"/>
<feBlend mode="normal" in="SourceGraphic" in2="effect1_dropShadow_278_31" result="shape"/>
</filter>
<clipPath id="clip0_278_31">
<rect width="15" height="15" fill="white"/>
</clipPath>
</defs>
</svg>
