<svg width="15" height="15" viewBox="0 0 15 15" fill="none" xmlns="http://www.w3.org/2000/svg">
<g clip-path="url(#clip0_278_55)">
<path d="M0 13H15" stroke="#AEAEAE"/>
<path d="M0 11H15" stroke="#AEAEAE"/>
<path d="M0 9H15" stroke="#AEAEAE"/>
<path d="M0 7H15" stroke="#AEAEAE"/>
<path d="M0 5H15" stroke="#AEAEAE"/>
<g filter="url(#filter0_d_278_55)">
<ellipse cx="7" cy="13" rx="2" ry="1" fill="#D30BB5"/>
<path d="M8.9 13C8.9 13.2179 8.72079 13.442 8.36949 13.6177C8.02418 13.7903 7.54013 13.9 7 13.9C6.45987 13.9 5.97582 13.7903 5.63051 13.6177C5.27921 13.442 5.1 13.2179 5.1 13C5.1 12.7821 5.27921 12.558 5.63051 12.3823C5.97582 12.2097 6.45987 12.1 7 12.1C7.54013 12.1 8.02418 12.2097 8.36949 12.3823C8.72079 12.558 8.9 12.7821 8.9 13Z" stroke="#F5ACFF" stroke-width="0.2"/>
</g>
<mask id="path-8-outside-1_278_55" maskUnits="userSpaceOnUse" x="4" y="0" width="5" height="7" fill="black">
<rect fill="white" x="4" width="5" height="7"/>
<path d="M8.35938 6H4.51953V0.398438H8.35938V1.51953H5.64062V2.64062H7.48047V3.76172H5.64062V4.87891H8.35938V6Z"/>
</mask>
<path d="M8.35938 6H4.51953V0.398438H8.35938V1.51953H5.64062V2.64062H7.48047V3.76172H5.64062V4.87891H8.35938V6Z" fill="#D30BB5"/>
<path d="M8.35938 6V6.2H8.55938V6H8.35938ZM4.51953 6H4.31953V6.2H4.51953V6ZM4.51953 0.398438V0.198437H4.31953V0.398438H4.51953ZM8.35938 0.398438H8.55938V0.198437H8.35938V0.398438ZM8.35938 1.51953V1.71953H8.55938V1.51953H8.35938ZM5.64062 1.51953V1.31953H5.44062V1.51953H5.64062ZM5.64062 2.64062H5.44062V2.84063H5.64062V2.64062ZM7.48047 2.64062H7.68047V2.44062H7.48047V2.64062ZM7.48047 3.76172V3.96172H7.68047V3.76172H7.48047ZM5.64062 3.76172V3.56172H5.44062V3.76172H5.64062ZM5.64062 4.87891H5.44062V5.07891H5.64062V4.87891ZM8.35938 4.87891H8.55938V4.67891H8.35938V4.87891ZM8.35938 5.8H4.51953V6.2H8.35938V5.8ZM4.71953 6V0.398438H4.31953V6H4.71953ZM4.51953 0.598438H8.35938V0.198437H4.51953V0.598438ZM8.15937 0.398438V1.51953H8.55938V0.398438H8.15937ZM8.35938 1.31953H5.64062V1.71953H8.35938V1.31953ZM5.44062 1.51953V2.64062H5.84063V1.51953H5.44062ZM5.64062 2.84063H7.48047V2.44062H5.64062V2.84063ZM7.28047 2.64062V3.76172H7.68047V2.64062H7.28047ZM7.48047 3.56172H5.64062V3.96172H7.48047V3.56172ZM5.44062 3.76172V4.87891H5.84063V3.76172H5.44062ZM5.64062 5.07891H8.35938V4.67891H5.64062V5.07891ZM8.15937 4.87891V6H8.55938V4.87891H8.15937Z" fill="#F5ACFF" mask="url(#path-8-outside-1_278_55)"/>
</g>
<defs>
<filter id="filter0_d_278_55" x="-1.9" y="5.1" width="17.8" height="15.8" filterUnits="userSpaceOnUse" color-interpolation-filters="sRGB">
<feFlood flood-opacity="0" result="BackgroundImageFix"/>
<feColorMatrix in="SourceAlpha" type="matrix" values="0 0 0 0 0 0 0 0 0 0 0 0 0 0 0 0 0 0 127 0" result="hardAlpha"/>
<feMorphology radius="1" operator="dilate" in="SourceAlpha" result="effect1_dropShadow_278_55"/>
<feOffset/>
<feGaussianBlur stdDeviation="2.95"/>
<feComposite in2="hardAlpha" operator="out"/>
<feColorMatrix type="matrix" values="0 0 0 0 0.971336 0 0 0 0 0.762093 0 0 0 0 1 0 0 0 1 0"/>
<feBlend mode="normal" in2="BackgroundImageFix" result="effect1_dropShadow_278_55"/>
<feBlend mode="normal" in="SourceGraphic" in2="effect1_dropShadow_278_55" result="shape"/>
</filter>
<clipPath id="clip0_278_55">
<rect width="15" height="15" fill="white"/>
</clipPath>
</defs>
</svg>
