<svg width="215" height="222" viewBox="0 0 215 222" fill="none" xmlns="http://www.w3.org/2000/svg">
<path d="M113.719 217.5H96.395C90.5488 217.5 85.4217 213.597 83.8646 207.962L80.8211 196.948C78.4529 188.377 68.3717 184.66 61.0067 189.643L51.1451 196.314C45.8711 199.881 38.7892 199.104 34.4147 194.477L22.7171 182.105C18.7388 177.897 18.0233 171.565 20.9623 166.576L28.9528 153.01C33.2753 145.672 29.4919 136.229 21.2984 133.906L13.4533 131.681C7.86009 130.095 4 124.988 4 119.174V101.911C4 95.826 8.22147 90.5549 14.1599 89.2254L19.4871 88.0327C28.2631 86.068 32.441 75.9998 27.6345 68.3988L21.7635 59.1144C18.4213 53.829 19.3157 46.9129 23.8926 42.6517L37.8872 29.6223C42.1049 25.6954 48.4045 25.0139 53.3644 27.948L63.8881 34.1733C71.8268 38.8694 81.9948 34.0344 83.3631 24.9128L84.8393 15.0716C85.7938 8.70781 91.2605 4 97.6954 4H114.667C120.245 4 125.201 7.55807 126.984 12.8429L131.949 27.5522C134.723 35.7712 144.615 39.0196 151.721 34.0451L158.807 29.0849C163.867 25.5433 170.72 26.0501 175.203 30.2975L188.158 42.5703C192.703 46.8769 193.533 53.8125 190.131 59.0699L184.362 67.9861C179.384 75.6788 183.714 85.969 192.694 87.7893L200.583 89.3884C206.644 90.6169 211 95.9451 211 102.129V123.405C211 128.866 207.586 133.745 202.456 135.617L189.422 140.373C181.546 143.247 178.409 152.714 183.011 159.722L189.531 169.649C193.202 175.239 192.033 182.702 186.829 186.902L174.931 196.503C170.509 200.072 164.283 200.355 159.555 197.203L148.553 189.869C141.016 184.844 130.78 188.875 128.692 197.689L126.369 207.496C124.981 213.359 119.745 217.5 113.719 217.5Z" fill="white" stroke="black" stroke-width="8"/>
<circle cx="108" cy="111" r="31" fill="#272727" stroke="black" stroke-width="8"/>
</svg>
